<mxfile host="Electron" modified="2024-08-27T14:25:17.888Z" agent="Mozilla/5.0 (Windows NT 10.0; Win64; x64) AppleWebKit/537.36 (KHTML, like Gecko) draw.io/21.2.1 Chrome/112.0.5615.87 Electron/24.1.2 Safari/537.36" etag="ak0zOabFS5GXKrKTQpMq" version="21.2.1" type="device">
  <diagram name="第 1 页" id="Rehs_RWKuDIFWq8Jdfnn">
    <mxGraphModel dx="1446" dy="809" grid="1" gridSize="10" guides="1" tooltips="1" connect="1" arrows="1" fold="1" page="1" pageScale="1" pageWidth="827" pageHeight="1169" math="0" shadow="0">
      <root>
        <mxCell id="0" />
        <mxCell id="1" parent="0" />
        <mxCell id="P49dobZ90kQ6xjwSlYbk-1" value="按文件大小得到每个线程处理的分块大小" style="rounded=0;whiteSpace=wrap;html=1;" parent="1" vertex="1">
          <mxGeometry x="362.5" y="350" width="290" height="50" as="geometry" />
        </mxCell>
        <mxCell id="P49dobZ90kQ6xjwSlYbk-3" value="获取文件大小" style="rounded=0;whiteSpace=wrap;html=1;" parent="1" vertex="1">
          <mxGeometry x="425" y="280" width="165" height="40" as="geometry" />
        </mxCell>
        <mxCell id="P49dobZ90kQ6xjwSlYbk-4" value="" style="endArrow=classic;html=1;rounded=0;exitX=0.5;exitY=1;exitDx=0;exitDy=0;" parent="1" source="P49dobZ90kQ6xjwSlYbk-3" target="P49dobZ90kQ6xjwSlYbk-1" edge="1">
          <mxGeometry width="50" height="50" relative="1" as="geometry">
            <mxPoint x="672.5" y="450" as="sourcePoint" />
            <mxPoint x="722.5" y="400" as="targetPoint" />
          </mxGeometry>
        </mxCell>
        <mxCell id="P49dobZ90kQ6xjwSlYbk-5" value="" style="endArrow=classic;html=1;rounded=0;exitX=0.5;exitY=1;exitDx=0;exitDy=0;entryX=0.5;entryY=0;entryDx=0;entryDy=0;" parent="1" target="P49dobZ90kQ6xjwSlYbk-8" edge="1">
          <mxGeometry width="50" height="50" relative="1" as="geometry">
            <mxPoint x="507.5000000000002" y="560" as="sourcePoint" />
            <mxPoint x="507.5" y="590" as="targetPoint" />
          </mxGeometry>
        </mxCell>
        <mxCell id="P49dobZ90kQ6xjwSlYbk-7" value="" style="endArrow=classic;html=1;rounded=0;exitX=0.5;exitY=1;exitDx=0;exitDy=0;entryX=0.5;entryY=0;entryDx=0;entryDy=0;" parent="1" source="P49dobZ90kQ6xjwSlYbk-8" edge="1">
          <mxGeometry width="50" height="50" relative="1" as="geometry">
            <mxPoint x="507.5" y="650" as="sourcePoint" />
            <mxPoint x="507.5" y="670" as="targetPoint" />
          </mxGeometry>
        </mxCell>
        <mxCell id="P49dobZ90kQ6xjwSlYbk-8" value="将线程组的结束位置移至末尾&lt;br&gt;下一线程的开始位置为上一线程的下一位" style="rounded=0;whiteSpace=wrap;html=1;" parent="1" vertex="1">
          <mxGeometry x="367.5" y="590" width="280" height="50" as="geometry" />
        </mxCell>
        <mxCell id="P49dobZ90kQ6xjwSlYbk-9" value="各线程进行文件处理" style="rounded=0;whiteSpace=wrap;html=1;" parent="1" vertex="1">
          <mxGeometry x="447.5" y="740" width="120" height="40" as="geometry" />
        </mxCell>
        <mxCell id="P49dobZ90kQ6xjwSlYbk-10" value="" style="endArrow=classic;html=1;rounded=0;exitX=0.5;exitY=1;exitDx=0;exitDy=0;" parent="1" edge="1">
          <mxGeometry width="50" height="50" relative="1" as="geometry">
            <mxPoint x="507.5" y="710" as="sourcePoint" />
            <mxPoint x="507.5" y="740" as="targetPoint" />
          </mxGeometry>
        </mxCell>
        <mxCell id="P49dobZ90kQ6xjwSlYbk-12" value="" style="endArrow=classic;html=1;rounded=0;entryX=1;entryY=0.5;entryDx=0;entryDy=0;exitX=0.969;exitY=0.5;exitDx=0;exitDy=0;exitPerimeter=0;" parent="1" source="P49dobZ90kQ6xjwSlYbk-20" target="P49dobZ90kQ6xjwSlYbk-24" edge="1">
          <mxGeometry width="50" height="50" relative="1" as="geometry">
            <mxPoint x="630" y="530" as="sourcePoint" />
            <mxPoint x="720" y="700" as="targetPoint" />
            <Array as="points">
              <mxPoint x="730" y="530" />
              <mxPoint x="730" y="690" />
            </Array>
          </mxGeometry>
        </mxCell>
        <mxCell id="P49dobZ90kQ6xjwSlYbk-15" value="按分块大小初始化线程组的文件开始位置和结束位置" style="rounded=0;whiteSpace=wrap;html=1;" parent="1" vertex="1">
          <mxGeometry x="360" y="430" width="290" height="40" as="geometry" />
        </mxCell>
        <mxCell id="P49dobZ90kQ6xjwSlYbk-16" value="" style="endArrow=classic;html=1;rounded=0;exitX=0.5;exitY=1;exitDx=0;exitDy=0;" parent="1" edge="1">
          <mxGeometry width="50" height="50" relative="1" as="geometry">
            <mxPoint x="507.33" y="400" as="sourcePoint" />
            <mxPoint x="507.33" y="430" as="targetPoint" />
          </mxGeometry>
        </mxCell>
        <mxCell id="P49dobZ90kQ6xjwSlYbk-17" value="" style="endArrow=classic;html=1;rounded=0;exitX=0.5;exitY=1;exitDx=0;exitDy=0;" parent="1" edge="1">
          <mxGeometry width="50" height="50" relative="1" as="geometry">
            <mxPoint x="507.33" y="470" as="sourcePoint" />
            <mxPoint x="507.33" y="500" as="targetPoint" />
          </mxGeometry>
        </mxCell>
        <mxCell id="P49dobZ90kQ6xjwSlYbk-18" value="开始" style="rounded=1;whiteSpace=wrap;html=1;" parent="1" vertex="1">
          <mxGeometry x="447.5" y="210" width="120" height="40" as="geometry" />
        </mxCell>
        <mxCell id="P49dobZ90kQ6xjwSlYbk-20" value="判断各线程的结束位置是否为行尾" style="rhombus;whiteSpace=wrap;html=1;" parent="1" vertex="1">
          <mxGeometry x="387.5" y="500" width="240" height="60" as="geometry" />
        </mxCell>
        <mxCell id="P49dobZ90kQ6xjwSlYbk-21" value="" style="endArrow=classic;html=1;rounded=0;exitX=0.5;exitY=1;exitDx=0;exitDy=0;" parent="1" edge="1">
          <mxGeometry width="50" height="50" relative="1" as="geometry">
            <mxPoint x="507.36" y="250" as="sourcePoint" />
            <mxPoint x="507.36" y="280" as="targetPoint" />
          </mxGeometry>
        </mxCell>
        <mxCell id="P49dobZ90kQ6xjwSlYbk-22" value="否" style="text;html=1;align=center;verticalAlign=middle;resizable=0;points=[];autosize=1;strokeColor=none;fillColor=none;" parent="1" vertex="1">
          <mxGeometry x="510" y="560" width="40" height="30" as="geometry" />
        </mxCell>
        <mxCell id="P49dobZ90kQ6xjwSlYbk-23" value="合并各线程的数据输出文件" style="rounded=0;whiteSpace=wrap;html=1;" parent="1" vertex="1">
          <mxGeometry x="428.75" y="810" width="157.5" height="40" as="geometry" />
        </mxCell>
        <mxCell id="P49dobZ90kQ6xjwSlYbk-24" value="管理线程容器" style="rounded=0;whiteSpace=wrap;html=1;" parent="1" vertex="1">
          <mxGeometry x="447.5" y="670" width="120" height="40" as="geometry" />
        </mxCell>
        <mxCell id="P49dobZ90kQ6xjwSlYbk-25" value="等待各线程完成其工作" style="rounded=0;whiteSpace=wrap;html=1;" parent="1" vertex="1">
          <mxGeometry x="435" y="880" width="145" height="40" as="geometry" />
        </mxCell>
        <mxCell id="P49dobZ90kQ6xjwSlYbk-26" value="" style="endArrow=classic;html=1;rounded=0;exitX=0.5;exitY=1;exitDx=0;exitDy=0;entryX=0.5;entryY=0;entryDx=0;entryDy=0;" parent="1" source="P49dobZ90kQ6xjwSlYbk-23" target="P49dobZ90kQ6xjwSlYbk-25" edge="1">
          <mxGeometry width="50" height="50" relative="1" as="geometry">
            <mxPoint x="505" y="850" as="sourcePoint" />
            <mxPoint x="505" y="880" as="targetPoint" />
          </mxGeometry>
        </mxCell>
        <mxCell id="P49dobZ90kQ6xjwSlYbk-29" value="结束" style="rounded=1;whiteSpace=wrap;html=1;" parent="1" vertex="1">
          <mxGeometry x="447.5" y="950" width="120" height="40" as="geometry" />
        </mxCell>
        <mxCell id="P49dobZ90kQ6xjwSlYbk-30" value="" style="endArrow=classic;html=1;rounded=0;exitX=0.5;exitY=1;exitDx=0;exitDy=0;entryX=0.5;entryY=0;entryDx=0;entryDy=0;" parent="1" source="P49dobZ90kQ6xjwSlYbk-25" target="P49dobZ90kQ6xjwSlYbk-29" edge="1">
          <mxGeometry width="50" height="50" relative="1" as="geometry">
            <mxPoint x="583.75" y="890" as="sourcePoint" />
            <mxPoint x="633.75" y="840" as="targetPoint" />
          </mxGeometry>
        </mxCell>
        <mxCell id="P49dobZ90kQ6xjwSlYbk-31" value="" style="endArrow=classic;html=1;rounded=0;exitX=0.5;exitY=1;exitDx=0;exitDy=0;" parent="1" source="P49dobZ90kQ6xjwSlYbk-9" target="P49dobZ90kQ6xjwSlYbk-23" edge="1">
          <mxGeometry width="50" height="50" relative="1" as="geometry">
            <mxPoint x="590" y="890" as="sourcePoint" />
            <mxPoint x="640" y="840" as="targetPoint" />
          </mxGeometry>
        </mxCell>
        <mxCell id="P49dobZ90kQ6xjwSlYbk-32" value="是" style="text;html=1;align=center;verticalAlign=middle;resizable=0;points=[];autosize=1;strokeColor=none;fillColor=none;" parent="1" vertex="1">
          <mxGeometry x="640" y="500" width="40" height="30" as="geometry" />
        </mxCell>
      </root>
    </mxGraphModel>
  </diagram>
</mxfile>
